<svg width="18" height="18" viewBox="0 0 18 18" fill="none" xmlns="http://www.w3.org/2000/svg">
<path d="M17.085 6.74529L17.0851 6.7453C17.2664 6.7617 17.4205 6.88422 17.4773 7.05863C17.5344 7.23437 17.4816 7.42476 17.3441 7.54544L13.4164 10.9895L13.1925 11.1858L13.2585 11.4761L14.4165 16.5764C14.4573 16.7572 14.3872 16.9418 14.2392 17.0488L14.2388 17.0491C14.0903 17.1567 13.8933 17.1652 13.7363 17.0713L9.25665 14.3924L9.00005 14.2389L8.74343 14.3923L4.26286 17.0714L4.26272 17.0715C4.19024 17.1149 4.10961 17.1362 4.0289 17.1362C3.93458 17.1362 3.84149 17.1074 3.76181 17.0495L3.76082 17.0488C3.61289 16.9418 3.54275 16.7574 3.58354 16.5765C3.58356 16.5765 3.58357 16.5764 3.58358 16.5764L4.74158 11.4761L4.8075 11.1858L4.58364 10.9895L0.655856 7.54536C0.655844 7.54535 0.655833 7.54534 0.655821 7.54533C0.518482 7.42485 0.465875 7.23413 0.522437 7.05948C0.579917 6.88478 0.734077 6.76216 0.915387 6.74526C0.915529 6.74525 0.915672 6.74523 0.915815 6.74522L6.11196 6.27356L6.4093 6.24657L6.52658 5.972L8.58009 1.16431L8.58019 1.16407C8.65224 0.995135 8.81636 0.886719 9.00002 0.886719C9.18324 0.886719 9.34781 0.994781 9.42094 1.16467C9.421 1.16482 9.42107 1.16497 9.42113 1.16512L11.4743 5.972L11.5916 6.24656L11.8889 6.27355L17.085 6.74529Z" stroke="black"/>
</svg>
