<svg width="240" height="20" viewBox="0 0 240 20" fill="none" xmlns="http://www.w3.org/2000/svg">
<g id="Social/ Wishlist">
<g id="Group 10">
<path id="Icon color" d="M153.5 3.84224H150.5C149.948 3.84224 149.5 4.26641 149.5 4.78965V7.63189H153.5C153.614 7.6295 153.722 7.67963 153.789 7.7663C153.857 7.85298 153.876 7.96538 153.84 8.0677L153.1 10.152C153.032 10.3433 152.843 10.4726 152.63 10.4741H149.5V17.5797C149.5 17.8413 149.276 18.0534 149 18.0534H146.5C146.224 18.0534 146 17.8413 146 17.5797V10.4741H144.5C144.224 10.4741 144 10.262 144 10.0004V8.10559C144 7.84397 144.224 7.63189 144.5 7.63189H146V4.78965C146 2.69668 147.791 1 150 1H153.5C153.776 1 154 1.21209 154 1.47371V3.36853C154 3.63015 153.776 3.84224 153.5 3.84224Z" fill="#707070"/>
<path id="Icon color_2" fill-rule="evenodd" clip-rule="evenodd" d="M191 1.94629H183C180.239 1.94629 178 4.06714 178 6.68335V14.2626C178 16.8789 180.239 18.9997 183 18.9997H191C193.761 18.9997 196 16.8789 196 14.2626V6.68335C196 4.06714 193.761 1.94629 191 1.94629ZM194.25 14.2635C194.245 15.9619 192.793 17.3374 191 17.3426H183C181.207 17.3374 179.755 15.9619 179.75 14.2635V6.68415C179.755 4.98577 181.207 3.61026 183 3.60505H191C192.793 3.61026 194.245 4.98577 194.25 6.68415V14.2635ZM191.75 6.921C192.302 6.921 192.75 6.49683 192.75 5.97359C192.75 5.45034 192.302 5.02617 191.75 5.02617C191.198 5.02617 190.75 5.45034 190.75 5.97359C190.75 6.49683 191.198 6.921 191.75 6.921ZM187 6.21051C184.515 6.21051 182.5 8.11928 182.5 10.4739C182.5 12.8284 184.515 14.7372 187 14.7372C189.485 14.7372 191.5 12.8284 191.5 10.4739C191.503 9.34237 191.029 8.25651 190.185 7.45643C189.34 6.65635 188.194 6.20799 187 6.21051ZM184.25 10.4738C184.25 11.9127 185.481 13.0792 187 13.0792C188.519 13.0792 189.75 11.9127 189.75 10.4738C189.75 9.03489 188.519 7.86842 187 7.86842C185.481 7.86842 184.25 9.03489 184.25 10.4738Z" fill="#707070"/>
<path id="Icon color_3" d="M239.971 4.28052C239.455 4.93267 238.831 5.50155 238.124 5.96518C238.124 6.13554 238.124 6.3059 238.124 6.48572C238.129 9.57943 236.825 12.5459 234.503 14.7201C232.181 16.8943 229.036 18.0943 225.772 18.0512C223.885 18.0572 222.023 17.649 220.33 16.8587C220.239 16.821 220.18 16.7354 220.181 16.641V16.5369C220.181 16.401 220.297 16.2908 220.44 16.2908C222.295 16.2329 224.083 15.6237 225.552 14.5494C223.874 14.5174 222.363 13.5752 221.668 12.1265C221.633 12.0474 221.644 11.9566 221.697 11.887C221.75 11.8174 221.838 11.7791 221.928 11.7858C222.438 11.8344 222.953 11.7894 223.446 11.6533C221.592 11.2888 220.2 9.8313 220.001 8.04735C219.994 7.96177 220.034 7.87888 220.108 7.82862C220.181 7.77836 220.277 7.768 220.36 7.80128C220.858 8.00917 221.394 8.11867 221.938 8.12306C220.314 7.11334 219.613 5.19282 220.23 3.44765C220.294 3.27807 220.447 3.15279 220.634 3.11786C220.82 3.08293 221.012 3.14349 221.139 3.27729C223.33 5.48673 226.341 6.80333 229.536 6.94948C229.455 6.64004 229.414 6.32204 229.417 6.00304C229.447 4.33033 230.539 2.84024 232.182 2.23038C233.826 1.62052 235.695 2.01159 236.915 3.2205C237.747 3.0704 238.551 2.80575 239.302 2.43496C239.357 2.40243 239.426 2.40243 239.481 2.43496C239.516 2.48708 239.516 2.55319 239.481 2.60532C239.118 3.39427 238.503 4.05599 237.724 4.4982C238.407 4.42321 239.077 4.27069 239.721 4.04391C239.775 4.00893 239.847 4.00893 239.901 4.04391C239.946 4.0636 239.98 4.10125 239.994 4.14684C240.007 4.19243 239.999 4.24133 239.971 4.28052Z" fill="#707070"/>
<path id="Icon color_4" fill-rule="evenodd" clip-rule="evenodd" d="M117.125 1.94629H100.125C98.9514 1.94629 98 2.84766 98 3.95955V16.0391C98 17.151 98.9514 18.0524 100.125 18.0524H117.125C118.299 18.0524 119.25 17.151 119.25 16.0391V3.95955C119.25 2.84766 118.299 1.94629 117.125 1.94629ZM117.125 3.96033V6.87955L109.316 12.0637C108.9 12.3368 108.35 12.3368 107.934 12.0637L100.125 6.87955V3.96033H117.125ZM100.125 8.99348V16.0399H117.125V8.99348L110.378 13.4629C109.325 14.1602 107.925 14.1602 106.872 13.4629L100.125 8.99348Z" fill="#707070"/>
</g>
<line id="Line 3" x1="59.5" y1="2.18557e-08" x2="59.5" y2="19.6639" stroke="#D8D8D8"/>
<path id="Icon color_5" fill-rule="evenodd" clip-rule="evenodd" d="M9.56899 3.01405C10.6777 1.77861 12.231 1.05209 13.875 1C16.7817 1 19.138 3.39588 19.138 6.35135C19.138 9.85038 15.3125 13.6852 13.0182 15.9851C12.8117 16.1921 12.6175 16.3868 12.4397 16.5676L10.258 18.7859C10.1235 18.9228 9.94108 18.9998 9.7508 19H9.38718C9.19691 18.9998 9.01449 18.9228 8.88003 18.7859L6.6983 16.5676C6.52047 16.3868 6.32632 16.1921 6.11976 15.9851C3.82545 13.6852 0 9.85038 0 6.35135C0 3.39588 2.3563 1 5.26295 1C6.90699 1.05209 8.4603 1.77861 9.56899 3.01405ZM9.56914 16.7329L11.6743 14.6215C13.6168 12.6756 17.2243 9.03663 17.2243 6.35122C17.2244 5.44297 16.8676 4.57233 16.2333 3.93284C15.599 3.29336 14.7397 2.93801 13.8465 2.9458C12.3588 3.08623 11.0159 3.91052 10.2007 5.18365C10.1094 5.30497 9.96818 5.37675 9.81793 5.37824H9.38733C9.16376 5.37763 8.95255 5.27383 8.81319 5.09608C8.01092 3.86988 6.70555 3.07922 5.26309 2.9458C3.4134 2.9458 1.91394 4.47046 1.91394 6.35122C1.91394 9.03663 5.52145 12.6756 7.46396 14.6215L9.56914 16.7329Z" fill="#707070"/>
</g>
</svg>
